<?xml version="1.0" encoding="UTF-8" standalone="no"?>
<svg
   xmlns:dc="http://purl.org/dc/elements/1.1/"
   xmlns:cc="http://creativecommons.org/ns#"
   xmlns:rdf="http://www.w3.org/1999/02/22-rdf-syntax-ns#"
   xmlns:svg="http://www.w3.org/2000/svg"
   xmlns="http://www.w3.org/2000/svg"
   xmlns:sodipodi="http://sodipodi.sourceforge.net/DTD/sodipodi-0.dtd"
   xmlns:inkscape="http://www.inkscape.org/namespaces/inkscape"
   version="1.0"
   width="82pt"
   height="38pt"
   viewBox="0 0 371.15783 172"
   preserveAspectRatio="xMidYMid meet"
   id="svg12"
   sodipodi:docname="logo.svg"
   inkscape:version="1.0.2 (e86c870879, 2021-01-15, custom)">
  <defs
     id="defs16" />
  <sodipodi:namedview
     pagecolor="#ffffff"
     bordercolor="#666666"
     borderopacity="1"
     objecttolerance="10"
     gridtolerance="10"
     guidetolerance="10"
     inkscape:pageopacity="0"
     inkscape:pageshadow="2"
     inkscape:window-width="1920"
     inkscape:window-height="1017"
     id="namedview14"
     showgrid="false"
     inkscape:zoom="8.3881579"
     inkscape:cx="50.543625"
     inkscape:cy="13.82874"
     inkscape:window-x="-8"
     inkscape:window-y="-8"
     inkscape:window-maximized="1"
     inkscape:current-layer="svg12"
     inkscape:snap-global="false"
     inkscape:document-rotation="0"
     showguides="true"
     inkscape:guide-bbox="true" />
  <metadata
     id="metadata2">
Created by Docfx
<rdf:RDF>
  <cc:Work
     rdf:about="">
    <dc:format>image/svg+xml</dc:format>
    <dc:type
       rdf:resource="http://purl.org/dc/dcmitype/StillImage" />
    <dc:title></dc:title>
  </cc:Work>
</rdf:RDF>
</metadata>
  <g
     aria-label="InSync"
     id="text20"
     style="font-style:normal;font-variant:normal;font-weight:bold;font-stretch:normal;font-size:135.789px;line-height:1.25;font-family:'Noto Sans';-inkscape-font-specification:'Noto Sans Bold';fill:#dddddd;fill-opacity:1;stroke:none;stroke-width:3.39474"
     transform="matrix(0.75,0,0,0.75,4.475586,22.490567)">
    <path
       id="path45"
       style="font-style:normal;font-variant:normal;font-weight:bold;font-stretch:normal;font-family:'Noto Sans';-inkscape-font-specification:'Noto Sans Bold';fill:#dddddd;fill-opacity:1;stroke-width:3.39474"
       sodipodi:type="inkscape:offset"
       inkscape:radius="0"
       inkscape:original="M 195.78711 35.646484 C 185.6482 35.646484 177.63615 38.090112 171.75195 42.978516 C 165.86777 47.776394 162.92578 54.520441 162.92578 63.210938 C 162.92578 67.646711 163.69544 71.448777 165.23438 74.617188 C 166.77332 77.785598 168.71859 80.502475 171.07227 82.765625 C 173.51647 84.938249 176.05248 86.793089 178.67773 88.332031 C 181.30299 89.780447 183.74661 91.048454 186.00977 92.134766 C 189.63081 93.85476 192.84409 95.484495 195.65039 97.023438 C 198.4567 98.471853 200.67521 100.0554 202.30469 101.77539 C 204.02468 103.49538 204.88477 105.57728 204.88477 108.02148 C 204.88477 111.00884 203.79763 113.49866 201.625 115.49023 C 199.5429 117.39128 195.96789 118.3418 190.89844 118.3418 C 186.01003 118.3418 181.07658 117.5279 176.09766 115.89844 C 171.20925 114.17844 166.45667 112.32165 161.83984 110.33008 L 161.83984 129.47656 C 169.89666 133.36918 179.03814 135.31641 189.26758 135.31641 C 200.67386 135.31641 209.45556 132.7804 215.61133 127.71094 C 221.85762 122.55096 224.98047 115.67224 224.98047 107.07227 C 224.98047 102.00281 224.02995 97.746629 222.12891 94.306641 C 220.22786 90.866653 217.51294 87.880431 213.98242 85.345703 C 210.54244 82.810975 206.33245 80.365395 201.35352 78.011719 C 195.28828 75.114887 190.71656 72.67126 187.63867 70.679688 C 184.56079 68.688115 183.02148 65.973191 183.02148 62.533203 C 183.02148 59.636371 184.06244 57.281223 186.14453 55.470703 C 188.22663 53.660183 191.2148 52.755859 195.10742 52.755859 C 198.81899 52.755859 202.44019 53.254214 205.9707 54.25 C 209.50122 55.245786 213.48415 56.648464 217.91992 58.458984 L 224.57422 42.435547 C 219.50477 40.262923 214.70599 38.588947 210.17969 37.412109 C 205.65339 36.235271 200.85657 35.646484 195.78711 35.646484 z M 17.902344 37.003906 L 17.902344 48.681641 L 29.716797 54.113281 L 29.716797 116.84766 L 17.902344 122.2793 L 17.902344 133.95703 L 62.035156 133.95703 L 62.035156 122.2793 L 50.220703 116.84766 L 50.220703 54.113281 L 62.035156 48.681641 L 62.035156 37.003906 L 17.902344 37.003906 z M 119.06641 58.458984 C 114.44958 58.458984 110.05872 59.319069 105.89453 61.039062 C 101.82086 62.759056 98.607582 65.520174 96.253906 69.322266 L 95.166016 69.322266 L 92.451172 59.816406 L 76.970703 59.816406 L 76.970703 133.95703 L 97.203125 133.95703 L 97.203125 99.060547 C 97.203125 91.184785 98.334506 85.164196 100.59766 81 C 102.8608 76.745278 107.07079 74.617188 113.22656 74.617188 C 117.39076 74.617188 120.42317 75.975626 122.32422 78.691406 C 124.22527 81.31666 125.17578 85.299591 125.17578 90.640625 L 125.17578 133.95703 L 145.4082 133.95703 L 145.4082 85.617188 C 145.4082 76.111957 143.01077 69.231285 138.21289 64.976562 C 133.41502 60.631314 127.0327 58.458984 119.06641 58.458984 z M 360.36328 58.458984 C 355.74645 58.458984 351.3556 59.319069 347.19141 61.039062 C 343.11773 62.759056 339.9025 65.520174 337.54883 69.322266 L 336.46289 69.322266 L 333.74805 59.816406 L 318.26758 59.816406 L 318.26758 133.95703 L 338.5 133.95703 L 338.5 99.060547 C 338.5 91.184785 339.63138 85.164196 341.89453 81 C 344.15768 76.745278 348.36767 74.617188 354.52344 74.617188 C 358.68764 74.617188 361.72005 75.975626 363.62109 78.691406 C 365.52213 81.31666 366.47266 85.299591 366.47266 90.640625 L 366.47266 133.95703 L 386.70508 133.95703 L 386.70508 85.617188 C 386.70508 76.111957 384.30569 69.231285 379.50781 64.976562 C 374.70993 60.631314 368.32957 58.458984 360.36328 58.458984 z M 439.39062 58.458984 C 432.23907 58.458984 425.90295 59.817423 420.38086 62.533203 C 414.9493 65.248983 410.69507 69.457018 407.61719 75.160156 C 404.5393 80.863294 403 88.242322 403 97.294922 C 403 110.51172 405.98818 120.15156 411.96289 126.2168 C 418.02814 132.28204 426.58278 135.31641 437.62695 135.31641 C 442.78693 135.31641 447.04116 134.86229 450.39062 133.95703 C 453.83061 133.1423 457.09008 131.73962 460.16797 129.74805 L 460.16797 112.50391 C 457.09008 114.49548 453.92104 116.07902 450.66211 117.25586 C 447.40318 118.34217 443.64535 118.88477 439.39062 118.88477 C 434.4117 118.88477 430.5192 117.12036 427.71289 113.58984 C 424.99711 110.05933 423.64062 104.58134 423.64062 97.158203 C 423.64062 82.221413 428.88961 74.753906 439.39062 74.753906 C 442.1064 74.753906 444.82328 75.161828 447.53906 75.976562 C 450.34537 76.791297 453.33159 77.832245 456.5 79.099609 L 462.47461 63.482422 C 459.6683 62.124532 456.36459 60.948911 452.5625 59.953125 C 448.85093 58.957339 444.46009 58.458984 439.39062 58.458984 z M 230.41211 59.816406 L 259.87891 133.41406 L 258.65625 137.08008 C 257.38888 140.70112 255.53404 143.77972 253.08984 146.31445 C 250.64564 148.93971 247.29574 150.25195 243.04102 150.25195 C 241.50208 150.25195 240.00897 150.16152 238.56055 149.98047 C 237.11213 149.79942 235.93456 149.61855 235.0293 149.4375 L 235.0293 165.46094 C 236.29666 165.73251 237.74553 165.95957 239.375 166.14062 C 241.00447 166.41221 242.99594 166.54688 245.34961 166.54688 C 252.41064 166.54688 258.61209 164.6016 263.95312 160.70898 C 269.29416 156.90689 273.41176 151.1576 276.30859 143.46289 L 307.67578 59.816406 L 285.94922 59.816406 L 272.23633 101.50391 C 271.51211 103.586 270.92333 105.6679 270.4707 107.75 C 270.01807 109.8321 269.65634 112.05062 269.38477 114.4043 L 268.97656 114.4043 C 268.79551 112.05062 268.52421 109.8321 268.16211 107.75 C 267.8 105.6679 267.25741 103.586 266.5332 101.50391 L 252.54688 59.816406 L 230.41211 59.816406 z "
       d="m 195.78711,35.646484 c -10.13891,0 -18.15096,2.443628 -24.03516,7.332032 -5.88418,4.797878 -8.82617,11.541925 -8.82617,20.232422 0,4.435773 0.76966,8.237839 2.3086,11.40625 1.53894,3.16841 3.48421,5.885287 5.83789,8.148437 2.4442,2.172624 4.98021,4.027464 7.60546,5.566406 2.62526,1.448416 5.06888,2.716423 7.33204,3.802735 3.62104,1.719994 6.83432,3.349729 9.64062,4.888672 2.80631,1.448415 5.02482,3.031962 6.6543,4.751952 1.71999,1.71999 2.58008,3.80189 2.58008,6.24609 0,2.98736 -1.08714,5.47718 -3.25977,7.46875 -2.0821,1.90105 -5.65711,2.85157 -10.72656,2.85157 -4.88841,0 -9.82186,-0.8139 -14.80078,-2.44336 -4.88841,-1.72 -9.64099,-3.57679 -14.25782,-5.56836 v 19.14648 c 8.05682,3.89262 17.1983,5.83985 27.42774,5.83985 11.40628,0 20.18798,-2.53601 26.34375,-7.60547 6.24629,-5.15998 9.36914,-12.0387 9.36914,-20.63867 0,-5.06946 -0.95052,-9.325641 -2.85156,-12.765629 -1.90105,-3.439988 -4.61597,-6.42621 -8.14649,-8.960938 -3.43998,-2.534728 -7.64997,-4.980308 -12.6289,-7.333984 -6.06524,-2.896832 -10.63696,-5.340459 -13.71485,-7.332031 -3.07788,-1.991573 -4.61719,-4.706497 -4.61719,-8.146485 0,-2.896832 1.04096,-5.25198 3.12305,-7.0625 2.0821,-1.81052 5.07027,-2.714844 8.96289,-2.714844 3.71157,0 7.33277,0.498355 10.86328,1.494141 3.53052,0.995786 7.51345,2.398464 11.94922,4.208984 l 6.6543,-16.023437 c -5.06945,-2.172624 -9.86823,-3.8466 -14.39453,-5.023438 -4.5263,-1.176838 -9.32312,-1.765625 -14.39258,-1.765625 z M 17.902344,37.003906 v 11.677735 l 11.814453,5.43164 v 62.734379 l -11.814453,5.43164 v 11.67773 H 62.035156 V 122.2793 L 50.220703,116.84766 V 54.113281 l 11.814453,-5.43164 V 37.003906 Z M 119.06641,58.458984 c -4.61683,0 -9.00769,0.860085 -13.17188,2.580078 -4.07367,1.719994 -7.286948,4.481112 -9.640624,8.283204 h -1.08789 l -2.714844,-9.50586 H 76.970703 V 133.95703 H 97.203125 V 99.060547 c 0,-7.875762 1.131381,-13.896351 3.394535,-18.060547 2.26314,-4.254722 6.47313,-6.382812 12.6289,-6.382812 4.1642,0 7.19661,1.358438 9.09766,4.074218 1.90105,2.625254 2.85156,6.608185 2.85156,11.949219 V 133.95703 H 145.4082 V 85.617188 c 0,-9.505231 -2.39743,-16.385903 -7.19531,-20.640626 -4.79787,-4.345248 -11.18019,-6.517578 -19.14648,-6.517578 z m 241.29687,0 c -4.61683,0 -9.00768,0.860085 -13.17187,2.580078 -4.07368,1.719994 -7.28891,4.481112 -9.64258,8.283204 h -1.08594 l -2.71484,-9.50586 H 318.26758 V 133.95703 H 338.5 V 99.060547 c 0,-7.875762 1.13138,-13.896351 3.39453,-18.060547 2.26315,-4.254722 6.47314,-6.382812 12.62891,-6.382812 4.1642,0 7.19661,1.358438 9.09765,4.074218 1.90104,2.625254 2.85157,6.608185 2.85157,11.949219 v 43.316405 h 20.23242 V 85.617188 c 0,-9.505231 -2.39939,-16.385903 -7.19727,-20.640626 -4.79788,-4.345248 -11.17824,-6.517578 -19.14453,-6.517578 z m 79.02734,0 c -7.15155,0 -13.48767,1.358439 -19.00976,4.074219 -5.43156,2.71578 -9.68579,6.923815 -12.76367,12.626953 C 404.5393,80.863294 403,88.242322 403,97.294922 c 0,13.216798 2.98818,22.856638 8.96289,28.921878 6.06525,6.06524 14.61989,9.09961 25.66406,9.09961 5.15998,0 9.41421,-0.45412 12.76367,-1.35938 3.43999,-0.81473 6.69946,-2.21741 9.77735,-4.20898 v -17.24414 c -3.07789,1.99157 -6.24693,3.57511 -9.50586,4.75195 -3.25893,1.08631 -7.01676,1.62891 -11.27149,1.62891 -4.97892,0 -8.87142,-1.76441 -11.67773,-5.29493 -2.71578,-3.53051 -4.07227,-9.0085 -4.07227,-16.431637 0,-14.93679 5.24899,-22.404297 15.75,-22.404297 2.71578,0 5.43266,0.407922 8.14844,1.222656 2.80631,0.814735 5.79253,1.855683 8.96094,3.123047 l 5.97461,-15.617187 c -2.80631,-1.35789 -6.11002,-2.533511 -9.91211,-3.529297 -3.71157,-0.995786 -8.10241,-1.494141 -13.17188,-1.494141 z m -208.97851,1.357422 29.4668,73.597654 -1.22266,3.66602 c -1.26737,3.62104 -3.12221,6.69964 -5.56641,9.23437 -2.4442,2.62526 -5.7941,3.9375 -10.04882,3.9375 -1.53894,0 -3.03205,-0.0904 -4.48047,-0.27148 -1.44842,-0.18105 -2.62599,-0.36192 -3.53125,-0.54297 v 16.02344 c 1.26736,0.27157 2.71623,0.49863 4.3457,0.67968 1.62947,0.27159 3.62094,0.40626 5.97461,0.40626 7.06103,0 13.26248,-1.94528 18.60351,-5.8379 5.34104,-3.80209 9.45864,-9.55138 12.35547,-17.24609 l 31.36719,-83.646484 h -21.72656 l -13.71289,41.687504 c -0.72422,2.08209 -1.313,4.16399 -1.76563,6.24609 -0.45263,2.0821 -0.81436,4.30062 -1.08593,6.6543 h -0.40821 c -0.18105,-2.35368 -0.45235,-4.5722 -0.81445,-6.6543 -0.36211,-2.0821 -0.9047,-4.164 -1.62891,-6.24609 L 252.54688,59.816406 Z" />
  </g>
</svg>
